{
  "accessors": [
    {
      "bufferView": 2,
      "componentType": 5126,
      "count": 398,
      "max": [
        0.10851529985666275,
        0.0592743344604969,
        1.4540890455245972
      ],
      "min": [
        -0.07172226160764694,
        -0.05924944579601288,
        -0.9858791828155518
      ],
      "type": "VEC3"
    },
    {
      "bufferView": 2,
      "byteOffset": 4776,
      "componentType": 5126,
      "count": 398,
      "max": [
        0.999987006187439,
        1.0,
        0.9132401347160339
      ],
      "min": [
        -0.9999868869781494,
        -1.0,
        -0.9915621876716614
      ],
      "type": "VEC3"
    },
    {
      "bufferView": 1,
      "componentType": 5126,
      "count": 398,
      "max": [
        0.31417664885520935,
        1.0
      ],
      "min": [
        0.0,
        6.747951501772428e-17
      ],
      "type": "VEC2"
    },
    {
      "bufferView": 0,
      "componentType": 5125,
      "count": 1440,
      "type": "SCALAR"
    },
    {
      "bufferView": 2,
      "byteOffset": 9552,
      "componentType": 5126,
      "count": 2684,
      "max": [
        21.888132095336914,
        8.274147033691406,
        3.738036632537842
      ],
      "min": [
        -2.082284688949585,
        0.7822164297103882,
        2.1533684730529785
      ],
      "type": "VEC3"
    },
    {
      "bufferView": 2,
      "byteOffset": 41760,
      "componentType": 5126,
      "count": 2684,
      "max": [
        0.9937986135482788,
        0.9999975562095642,
        1.0
      ],
      "min": [
        -0.9917555451393127,
        -0.9994258880615234,
        -1.0
      ],
      "type": "VEC3"
    },
    {
      "bufferView": 1,
      "byteOffset": 3184,
      "componentType": 5126,
      "count": 2684,
      "max": [
        1.0,
        0.886325478553772
      ],
      "min": [
        0.0,
        4.911774654538237e-17
      ],
      "type": "VEC2"
    },
    {
      "bufferView": 0,
      "byteOffset": 5760,
      "componentType": 5125,
      "count": 9780,
      "type": "SCALAR"
    },
    {
      "bufferView": 2,
      "byteOffset": 73968,
      "componentType": 5126,
      "count": 1144,
      "max": [
        17.75735092163086,
        1.7321933507919312,
        3.298062324523926
      ],
      "min": [
        -2.082284688949585,
        -5.759737968444824,
        2.6571314334869385
      ],
      "type": "VEC3"
    },
    {
      "bufferView": 2,
      "byteOffset": 87696,
      "componentType": 5126,
      "count": 1144,
      "max": [
        0.9987359046936035,
        0.9999922513961792,
        1.0
      ],
      "min": [
        -1.0,
        -0.9999969005584717,
        -1.0
      ],
      "type": "VEC3"
    },
    {
      "bufferView": 1,
      "byteOffset": 24656,
      "componentType": 5126,
      "count": 1144,
      "max": [
        1.0,
        0.7201101183891296
      ],
      "min": [
        0.0,
        -1.819130309170698e-17
      ],
      "type": "VEC2"
    },
    {
      "bufferView": 0,
      "byteOffset": 44880,
      "componentType": 5125,
      "count": 3636,
      "type": "SCALAR"
    },
    {
      "bufferView": 2,
      "byteOffset": 101424,
      "componentType": 5126,
      "count": 2119,
      "max": [
        14.460262298583984,
        1.7321933507919312,
        3.298062324523926
      ],
      "min": [
        -2.082284688949585,
        -5.759737968444824,
        2.6571314334869385
      ],
      "type": "VEC3"
    },
    {
      "bufferView": 2,
      "byteOffset": 126852,
      "componentType": 5126,
      "count": 2119,
      "max": [
        0.9994547367095947,
        0.9999921917915344,
        1.0
      ],
      "min": [
        -1.0,
        -0.9999783635139465,
        -1.0
      ],
      "type": "VEC3"
    },
    {
      "bufferView": 1,
      "byteOffset": 33808,
      "componentType": 5126,
      "count": 2119,
      "max": [
        1.0,
        0.7458012104034424
      ],
      "min": [
        0.0,
        -3.9823465773397744e-17
      ],
      "type": "VEC2"
    },
    {
      "bufferView": 0,
      "byteOffset": 59424,
      "componentType": 5125,
      "count": 7176,
      "type": "SCALAR"
    },
    {
      "bufferView": 2,
      "byteOffset": 152280,
      "componentType": 5126,
      "count": 981,
      "max": [
        1.7056033611297607,
        1.5884363651275635,
        42.49441909790039
      ],
      "min": [
        -1.6076613664627075,
        -1.5884369611740112,
        11.743431091308594
      ],
      "type": "VEC3"
    },
    {
      "bufferView": 2,
      "byteOffset": 164052,
      "componentType": 5126,
      "count": 981,
      "max": [
        1.0,
        0.9849657416343689,
        1.0
      ],
      "min": [
        -1.0,
        -0.9849656224250793,
        -1.0
      ],
      "type": "VEC3"
    },
    {
      "bufferView": 3,
      "componentType": 5126,
      "count": 981,
      "max": [
        0.992516040802002,
        1.0,
        1.0,
        1.0
      ],
      "min": [
        -0.9925221800804138,
        -1.0,
        -1.0,
        1.0
      ],
      "type": "VEC4"
    },
    {
      "bufferView": 1,
      "byteOffset": 50760,
      "componentType": 5126,
      "count": 981,
      "max": [
        0.9996845722198486,
        0.9815574288368225
      ],
      "min": [
        -5.551115123125783e-17,
        -1.0607054785286701e-16
      ],
      "type": "VEC2"
    },
    {
      "bufferView": 0,
      "byteOffset": 88128,
      "componentType": 5125,
      "count": 2700,
      "type": "SCALAR"
    },
    {
      "bufferView": 2,
      "byteOffset": 175824,
      "componentType": 5126,
      "count": 2872,
      "max": [
        3.2581682205200195,
        1.8426095247268677,
        56.557254791259766
      ],
      "min": [
        -3.2472681999206543,
        -1.8094911575317383,
        5.674100875854492
      ],
      "type": "VEC3"
    },
    {
      "bufferView": 2,
      "byteOffset": 210288,
      "componentType": 5126,
      "count": 2872,
      "max": [
        0.9999997019767761,
        1.0,
        1.0
      ],
      "min": [
        -0.9999990463256836,
        -1.0,
        -0.9999999403953552
      ],
      "type": "VEC3"
    },
    {
      "bufferView": 3,
      "byteOffset": 15696,
      "componentType": 5126,
      "count": 2872,
      "max": [
        1.0,
        1.0,
        0.999998927116394,
        1.0
      ],
      "min": [
        -1.0,
        -1.0,
        -1.0,
        1.0
      ],
      "type": "VEC4"
    },
    {
      "bufferView": 1,
      "byteOffset": 58608,
      "componentType": 5126,
      "count": 2872,
      "max": [
        0.9998049736022949,
        1.0
      ],
      "min": [
        -5.551115123125783e-17,
        2.089720283038332e-06
      ],
      "type": "VEC2"
    },
    {
      "bufferView": 0,
      "byteOffset": 98928,
      "componentType": 5125,
      "count": 10332,
      "type": "SCALAR"
    },
    {
      "bufferView": 2,
      "byteOffset": 244752,
      "componentType": 5126,
      "count": 823,
      "max": [
        0.027020778506994247,
        0.026905670762062073,
        0.09280377626419067
      ],
      "min": [
        -0.026894941926002502,
        -0.027058284729719162,
        -0.27161985635757446
      ],
      "type": "VEC3"
    },
    {
      "bufferView": 2,
      "byteOffset": 254628,
      "componentType": 5126,
      "count": 823,
      "max": [
        0.9947547316551208,
        1.0,
        0.9980396628379822
      ],
      "min": [
        -0.9895457029342651,
        -0.9947189092636108,
        -0.9873085618019104
      ],
      "type": "VEC3"
    },
    {
      "bufferView": 3,
      "byteOffset": 61648,
      "componentType": 5126,
      "count": 823,
      "max": [
        1.0,
        0.9787091016769409,
        0.999999463558197,
        1.0
      ],
      "min": [
        -0.9947189688682556,
        -0.9999911785125732,
        -1.0,
        1.0
      ],
      "type": "VEC4"
    },
    {
      "bufferView": 1,
      "byteOffset": 81584,
      "componentType": 5126,
      "count": 823,
      "max": [
        0.9935370087623596,
        1.0
      ],
      "min": [
        0.0,
        3.077440103964324e-17
      ],
      "type": "VEC2"
    },
    {
      "bufferView": 0,
      "byteOffset": 140256,
      "componentType": 5125,
      "count": 2766,
      "type": "SCALAR"
    },
    {
      "bufferView": 2,
      "byteOffset": 264504,
      "componentType": 5126,
      "count": 960,
      "max": [
        25.405651092529297,
        19.162487030029297,
        0.40324872732162476
      ],
      "min": [
        -24.098325729370117,
        -14.73236083984375,
        -1.3205671310424805
      ],
      "type": "VEC3"
    },
    {
      "bufferView": 2,
      "byteOffset": 276024,
      "componentType": 5126,
      "count": 960,
      "max": [
        0.10764387995004654,
        0.37983056902885437,
        1.0
      ],
      "min": [
        -0.20128986239433289,
        -0.44349488615989685,
        0.8943014144897461
      ],
      "type": "VEC3"
    },
    {
      "bufferView": 3,
      "byteOffset": 74816,
      "componentType": 5126,
      "count": 960,
      "max": [
        0.9969605803489685,
        0.29152125120162964,
        0.18476985394954681,
        1.0
      ],
      "min": [
        0.939121663570404,
        0.077904112637043,
        -0.09833091497421265,
        1.0
      ],
      "type": "VEC4"
    },
    {
      "bufferView": 1,
      "byteOffset": 88168,
      "componentType": 5126,
      "count": 960,
      "max": [
        0.9999998211860657,
        0.9999998211860657
      ],
      "min": [
        0.0,
        0.0
      ],
      "type": "VEC2"
    },
    {
      "bufferView": 0,
      "byteOffset": 151320,
      "componentType": 5125,
      "count": 5394,
      "type": "SCALAR"
    },
    {
      "bufferView": 2,
      "byteOffset": 287544,
      "componentType": 5126,
      "count": 675,
      "max": [
        27.529117584228516,
        19.16777229309082,
        2.2793331146240234
      ],
      "min": [
        -27.529117584228516,
        -19.1690673828125,
        0.0
      ],
      "type": "VEC3"
    },
    {
      "bufferView": 2,
      "byteOffset": 295644,
      "componentType": 5126,
      "count": 675,
      "max": [
        0.9998658895492554,
        1.0,
        1.0
      ],
      "min": [
        -0.9998658895492554,
        -1.0,
        -1.0
      ],
      "type": "VEC3"
    },
    {
      "bufferView": 1,
      "byteOffset": 95848,
      "componentType": 5126,
      "count": 675,
      "max": [
        0.712749719619751,
        1.0
      ],
      "min": [
        0.0,
        1.2254382989952586e-17
      ],
      "type": "VEC2"
    },
    {
      "bufferView": 0,
      "byteOffset": 172896,
      "componentType": 5125,
      "count": 3156,
      "type": "SCALAR"
    }
  ],
  "asset": {
    "extras": {
      "author": "vaulted.dev (https://sketchfab.com/vaulted.dev)",
      "license": "CC-BY-4.0 (http://creativecommons.org/licenses/by/4.0/)",
      "source": "https://sketchfab.com/3d-models/vr-surgical-tool-set-c61f5a8aa3c14ec192428de4b1ad9c42",
      "title": "VR Surgical Tool Set"
    },
    "generator": "Sketchfab-15.37.0",
    "version": "2.0"
  },
  "bufferViews": [
    {
      "buffer": 0,
      "byteLength": 185520,
      "name": "floatBufferViews",
      "target": 34963
    },
    {
      "buffer": 0,
      "byteLength": 101248,
      "byteOffset": 185520,
      "byteStride": 8,
      "name": "floatBufferViews",
      "target": 34962
    },
    {
      "buffer": 0,
      "byteLength": 303744,
      "byteOffset": 286768,
      "byteStride": 12,
      "name": "floatBufferViews",
      "target": 34962
    },
    {
      "buffer": 0,
      "byteLength": 90176,
      "byteOffset": 590512,
      "byteStride": 16,
      "name": "floatBufferViews",
      "target": 34962
    }
  ],
  "buffers": [
    {
      "byteLength": 680688,
      "uri": "scene.bin"
    }
  ],
  "images": [
    {
      "uri": "textures/Material_104_baseColor.png"
    },
    {
      "uri": "textures/Material_104_metallicRoughness.png"
    },
    {
      "uri": "textures/Material_70_baseColor.png"
    },
    {
      "uri": "textures/Material_70_metallicRoughness.png"
    },
    {
      "uri": "textures/Material_70_normal.png"
    },
    {
      "uri": "textures/Material_69_baseColor.png"
    },
    {
      "uri": "textures/Material_69_metallicRoughness.png"
    },
    {
      "uri": "textures/Material_69_normal.png"
    },
    {
      "uri": "textures/Material_106_baseColor.png"
    },
    {
      "uri": "textures/Material_106_metallicRoughness.png"
    },
    {
      "uri": "textures/Material_106_normal.png"
    },
    {
      "uri": "textures/Material_105_baseColor.png"
    },
    {
      "uri": "textures/Material_105_metallicRoughness.png"
    },
    {
      "uri": "textures/Material_105_normal.png"
    }
  ],
  "materials": [
    {
      "doubleSided": true,
      "name": "Material_104",
      "pbrMetallicRoughness": {
        "baseColorTexture": {
          "index": 0
        },
        "metallicRoughnessTexture": {
          "index": 1
        }
      }
    },
    {
      "alphaMode": "BLEND",
      "doubleSided": true,
      "name": "Material_70",
      "normalTexture": {
        "index": 4
      },
      "pbrMetallicRoughness": {
        "baseColorTexture": {
          "index": 2
        },
        "metallicRoughnessTexture": {
          "index": 3
        }
      }
    },
    {
      "doubleSided": true,
      "name": "Material_69",
      "normalTexture": {
        "index": 7
      },
      "pbrMetallicRoughness": {
        "baseColorTexture": {
          "index": 5
        },
        "metallicRoughnessTexture": {
          "index": 6
        }
      }
    },
    {
      "doubleSided": true,
      "name": "Material_106",
      "normalTexture": {
        "index": 10
      },
      "pbrMetallicRoughness": {
        "baseColorTexture": {
          "index": 8
        },
        "metallicRoughnessTexture": {
          "index": 9
        }
      }
    },
    {
      "doubleSided": true,
      "name": "Material_105",
      "normalTexture": {
        "index": 13
      },
      "pbrMetallicRoughness": {
        "baseColorTexture": {
          "index": 11
        },
        "metallicRoughnessTexture": {
          "index": 12
        }
      }
    }
  ],
  "meshes": [
    {
      "name": "w_Material #104_0",
      "primitives": [
        {
          "attributes": {
            "NORMAL": 1,
            "POSITION": 0,
            "TEXCOORD_0": 2
          },
          "indices": 3,
          "material": 0,
          "mode": 4
        }
      ]
    },
    {
      "name": "Scissors_T1_Material #104_0",
      "primitives": [
        {
          "attributes": {
            "NORMAL": 5,
            "POSITION": 4,
            "TEXCOORD_0": 6
          },
          "indices": 7,
          "material": 0,
          "mode": 4
        }
      ]
    },
    {
      "name": "Scissors_T3_Material #104_0",
      "primitives": [
        {
          "attributes": {
            "NORMAL": 9,
            "POSITION": 8,
            "TEXCOORD_0": 10
          },
          "indices": 11,
          "material": 0,
          "mode": 4
        }
      ]
    },
    {
      "name": "Scissors_T2_Material #104_0",
      "primitives": [
        {
          "attributes": {
            "NORMAL": 13,
            "POSITION": 12,
            "TEXCOORD_0": 14
          },
          "indices": 15,
          "material": 0,
          "mode": 4
        }
      ]
    },
    {
      "name": "Syringe_Material #70_0",
      "primitives": [
        {
          "attributes": {
            "NORMAL": 17,
            "POSITION": 16,
            "TANGENT": 18,
            "TEXCOORD_0": 19
          },
          "indices": 20,
          "material": 1,
          "mode": 4
        }
      ]
    },
    {
      "name": "Syringe_Material #69_0",
      "primitives": [
        {
          "attributes": {
            "NORMAL": 22,
            "POSITION": 21,
            "TANGENT": 23,
            "TEXCOORD_0": 24
          },
          "indices": 25,
          "material": 2,
          "mode": 4
        }
      ]
    },
    {
      "name": "Syringe_cap_Material #106_0",
      "primitives": [
        {
          "attributes": {
            "NORMAL": 27,
            "POSITION": 26,
            "TANGENT": 28,
            "TEXCOORD_0": 29
          },
          "indices": 30,
          "material": 3,
          "mode": 4
        }
      ]
    },
    {
      "name": "Towel_Material #105_0",
      "primitives": [
        {
          "attributes": {
            "NORMAL": 32,
            "POSITION": 31,
            "TANGENT": 33,
            "TEXCOORD_0": 34
          },
          "indices": 35,
          "material": 4,
          "mode": 4
        }
      ]
    },
    {
      "name": "Tray_Material #104_0",
      "primitives": [
        {
          "attributes": {
            "NORMAL": 37,
            "POSITION": 36,
            "TEXCOORD_0": 38
          },
          "indices": 39,
          "material": 0,
          "mode": 4
        }
      ]
    }
  ],
  "nodes": [
    {
      "children": [
        1
      ],
      "matrix": [
        1.0,
        0.0,
        0.0,
        0.0,
        0.0,
        2.220446049250313e-16,
        -1.0,
        0.0,
        0.0,
        1.0,
        2.220446049250313e-16,
        0.0,
        0.0,
        0.0,
        0.0,
        1.0
      ],
      "name": "Sketchfab_model"
    },
    {
      "children": [
        2
      ],
      "matrix": [
        0.009999999776482582,
        0.0,
        0.0,
        0.0,
        0.0,
        0.0,
        0.009999999776482582,
        0.0,
        0.0,
        -0.009999999776482582,
        0.0,
        0.0,
        0.0,
        0.0,
        0.0,
        1.0
      ],
      "name": "d28b97f26fca4afd9a757c444fded8bc.fbx"
    },
    {
      "children": [
        3,
        5,
        8,
        11,
        14,
        18,
        20,
        22
      ],
      "name": "RootNode"
    },
    {
      "children": [
        4
      ],
      "matrix": [
        9.99269539352917,
        0.15153781440521186,
        -0.3508205566186237,
        0.0,
        0.1514365526303064,
        -9.998852699599123,
        -0.005543981786156356,
        0.0,
        -0.3508643527114227,
        0.00022722657868647485,
        -9.993844720693874,
        0.0,
        15.977404594421387,
        2.7862884998321533,
        3.2739272117614746,
        1.0
      ],
      "name": "w"
    },
    {
      "mesh": 0,
      "name": "w_Material #104_0"
    },
    {
      "children": [
        6
      ],
      "matrix": [
        0.08556812800307742,
        0.03807072665438133,
        -1.131580942886151,
        0.0,
        -1.1313503561946205,
        0.047374430501619214,
        -0.08395683375405931,
        0.0,
        0.04439799623190747,
        1.13382229567411,
        0.04150343147183018,
        0.0,
        -11.732301712036133,
        2.839634418487549,
        6.799903869628906,
        1.0
      ],
      "name": "Scissors_T1"
    },
    {
      "children": [
        7
      ],
      "matrix": [
        1.0,
        0.0,
        -0.0,
        0.0,
        0.0,
        1.0,
        0.0,
        0.0,
        0.0,
        0.0,
        1.0,
        0.0,
        -5.038435935974121,
        -4.527144432067871,
        -2.96659779548645,
        1.0
      ],
      "name": "Object_6"
    },
    {
      "mesh": 1,
      "name": "Scissors_T1_Material #104_0"
    },
    {
      "children": [
        9
      ],
      "matrix": [
        0.09896112679324424,
        -0.02410354015064483,
        -1.1308724197702729,
        0.0,
        -1.131129263366858,
        -0.0021089143082907488,
        -0.09893865319805166,
        0.0,
        -1.2437984429238288e-07,
        1.135192180599259,
        -0.024195622896259407,
        0.0,
        5.449098587036133,
        2.7862884998321533,
        3.2739272117614746,
        1.0
      ],
      "name": "Scissors_T3"
    },
    {
      "children": [
        10
      ],
      "matrix": [
        1.0,
        0.0,
        -0.0,
        0.0,
        0.0,
        1.0,
        0.0,
        0.0,
        0.0,
        0.0,
        1.0,
        0.0,
        -6.184261322021484,
        2.0148096084594727,
        -2.966596841812134,
        1.0
      ],
      "name": "Object_9"
    },
    {
      "mesh": 2,
      "name": "Scissors_T3_Material #104_0"
    },
    {
      "children": [
        12
      ],
      "matrix": [
        0.0989610556948418,
        1.8909041091774343e-16,
        -1.1311292695871753,
        0.0,
        -1.1311292695871753,
        0.0,
        -0.09896105569484187,
        0.0,
        0.0,
        1.135450005531311,
        1.2606027394516229e-16,
        0.0,
        -3.8230819702148438,
        2.443248748779297,
        0.0,
        1.0
      ],
      "name": "Scissors_T2"
    },
    {
      "children": [
        13
      ],
      "matrix": [
        1.0,
        0.0,
        -0.0,
        0.0,
        0.0,
        1.0,
        0.0,
        0.0,
        0.0,
        0.0,
        1.0,
        0.0,
        -6.184261322021484,
        2.0148096084594727,
        -2.966596841812134,
        1.0
      ],
      "name": "Object_12"
    },
    {
      "mesh": 3,
      "name": "Scissors_T2_Material #104_0"
    },
    {
      "children": [
        15
      ],
      "matrix": [
        0.4813406451774955,
        -1.1207303126729152e-10,
        0.0030017159781531998,
        0.0,
        -0.0001253427826010461,
        -0.48093518037450705,
        0.020099343970173378,
        0.0,
        0.002415371986269467,
        -0.01618747793364076,
        -0.3873173612994764,
        0.0,
        -20.012344360351563,
        2.8047218322753906,
        0.0,
        1.0
      ],
      "name": "Syringe"
    },
    {
      "children": [
        16,
        17
      ],
      "matrix": [
        1.0,
        0.0,
        -0.0,
        0.0,
        0.0,
        1.0,
        0.0,
        0.0,
        0.0,
        0.0,
        1.0,
        0.0,
        0.08736550807952881,
        -0.0165548212826252,
        -26.972158432006836,
        1.0
      ],
      "name": "Object_15"
    },
    {
      "mesh": 4,
      "name": "Syringe_Material #70_0"
    },
    {
      "mesh": 5,
      "name": "Syringe_Material #69_0"
    },
    {
      "children": [
        19
      ],
      "matrix": [
        -16.585774729818763,
        -2.03117143349592e-15,
        7.53396100284656,
        0.0,
        -1.2274380077793963e-06,
        -18.216709136962653,
        -2.702165609983378e-06,
        0.0,
        7.218004534252712,
        -2.843412751043623e-06,
        15.890206646768334,
        0.0,
        -15.266361236572266,
        2.839634418487549,
        0.0,
        1.0
      ],
      "name": "Syringe_cap"
    },
    {
      "mesh": 6,
      "name": "Syringe_cap_Material #106_0"
    },
    {
      "children": [
        21
      ],
      "matrix": [
        1.0118245085617719,
        -5.87335755825235e-17,
        0.30932352555861736,
        0.0,
        0.30932352555861736,
        2.34934302330094e-16,
        -1.0118245085617719,
        0.0,
        -5.87335755825235e-17,
        1.0580500364303589,
        2.34934302330094e-16,
        0.0,
        0.0,
        3.081920623779297,
        3.314652442932129,
        1.0
      ],
      "name": "Towel"
    },
    {
      "mesh": 7,
      "name": "Towel_Material #105_0"
    },
    {
      "children": [
        23
      ],
      "matrix": [
        1.0,
        0.0,
        0.0,
        0.0,
        0.0,
        2.220446049250313e-16,
        -1.0,
        0.0,
        0.0,
        1.0,
        2.220446049250313e-16,
        0.0,
        0.0,
        0.9936928749084473,
        0.8699817657470703,
        1.0
      ],
      "name": "Tray"
    },
    {
      "mesh": 8,
      "name": "Tray_Material #104_0"
    }
  ],
  "samplers": [
    {
      "magFilter": 9729,
      "minFilter": 9987,
      "wrapS": 10497,
      "wrapT": 10497
    }
  ],
  "scene": 0,
  "scenes": [
    {
      "name": "Sketchfab_Scene",
      "nodes": [
        0
      ]
    }
  ],
  "textures": [
    {
      "sampler": 0,
      "source": 0
    },
    {
      "sampler": 0,
      "source": 1
    },
    {
      "sampler": 0,
      "source": 2
    },
    {
      "sampler": 0,
      "source": 3
    },
    {
      "sampler": 0,
      "source": 4
    },
    {
      "sampler": 0,
      "source": 5
    },
    {
      "sampler": 0,
      "source": 6
    },
    {
      "sampler": 0,
      "source": 7
    },
    {
      "sampler": 0,
      "source": 8
    },
    {
      "sampler": 0,
      "source": 9
    },
    {
      "sampler": 0,
      "source": 10
    },
    {
      "sampler": 0,
      "source": 11
    },
    {
      "sampler": 0,
      "source": 12
    },
    {
      "sampler": 0,
      "source": 13
    }
  ]
}
